<?xml version="1.0" standalone="no"?>
<!DOCTYPE svg PUBLIC "-//W3C//DTD SVG 20010904//EN"
 "http://www.w3.org/TR/2001/REC-SVG-20010904/DTD/svg10.dtd">

<svg version="1.0" xmlns="http://www.w3.org/2000/svg"
 width="768.000000pt" height="512.000000pt" viewBox="0 0 768.000000 512.000000"
 preserveAspectRatio="xMidYMid meet">

<g transform="translate(0.000000,512.000000) scale(0.100000,-0.100000)"
fill="gold" stroke="none">
<path  class="gold-fill" d="M3701 4430 c-99 -30 -144 -55 -149 -85 -3 -14 1 -16 30 -10 26 6 219
73 224 79 1 0 5 11 8 24 9 28 6 28 -113 -8z"/>
<path d="M3870 4440 c0 -21 65 -56 157 -84 82 -25 100 -27 113 -11 10 11 1 19
-48 44 -51 26 -188 71 -214 71 -5 0 -8 -9 -8 -20z"/>
<path d="M3862 4343 c-2 -34 3 -47 25 -67 36 -33 44 -24 10 12 -14 15 -27 42
-30 62 -4 34 -4 33 -5 -7z"/>
<path d="M3783 4340 c-11 -28 -10 -30 12 -30 27 0 41 15 24 25 -5 4 -8 13 -5
21 3 8 0 14 -7 14 -7 0 -18 -13 -24 -30z"/>
<path   d="M3286 4314 c-94 -16 -144 -20 -156 -14 -21 11 -64 -15 -193 -117 -78
-61 -78 -62 -50 -69 15 -4 71 -26 123 -49 52 -23 103 -45 112 -48 15 -5 16
-11 8 -33 -9 -23 -8 -25 7 -19 10 4 56 18 103 32 47 14 93 29 104 35 13 7 16
7 12 -1 -9 -14 3 -14 43 0 41 14 46 8 26 -31 -26 -50 -10 -46 20 5 27 47 50
55 50 18 0 -11 6 -27 13 -35 14 -18 3 -30 -28 -34 -81 -9 -126 -20 -229 -54
-65 -22 -126 -40 -134 -40 -9 0 -19 -5 -22 -11 -9 -13 48 -106 103 -169 24
-28 40 -50 35 -50 -5 0 -35 20 -68 45 -33 25 -91 58 -130 74 -113 48 -572 173
-614 169 -20 -3 -110 -22 -201 -42 -163 -38 -261 -48 -310 -33 -14 4 -32 3
-40 -3 -13 -8 -12 -11 5 -25 64 -50 264 -128 409 -160 28 -6 28 -6 10 -27 -11
-11 -77 -63 -149 -115 -71 -51 -161 -117 -200 -145 -38 -28 -107 -67 -153 -85
-113 -46 -396 -130 -505 -151 l-89 -16 24 -19 c29 -24 161 -91 303 -153 90
-39 121 -48 170 -48 54 -1 186 13 288 30 l38 7 -24 -44 c-57 -102 -162 -432
-155 -486 3 -27 4 -26 33 21 38 63 91 123 101 114 4 -4 2 -33 -5 -64 -17 -86
-14 -149 14 -275 37 -169 71 -288 122 -428 67 -186 98 -241 133 -241 10 0 29
-18 43 -39 14 -21 59 -79 100 -127 197 -236 345 -377 512 -489 123 -82 152
-94 161 -71 8 22 18 20 62 -9 90 -59 599 -193 629 -164 4 4 80 12 168 18 267
19 514 56 523 79 17 47 30 57 77 64 106 14 293 96 315 139 6 10 50 46 99 78
179 121 382 306 443 403 25 40 87 140 137 221 101 162 131 224 131 266 0 15 9
54 21 87 35 102 89 310 89 346 0 18 -7 58 -15 88 -26 94 -56 232 -53 242 3 9
29 -30 147 -222 39 -64 46 -71 49 -50 5 44 -56 325 -88 406 -17 44 -46 94 -63
112 -28 29 -29 32 -10 32 11 0 65 -9 118 -20 172 -35 208 -29 430 72 136 62
249 128 244 143 -2 6 -21 9 -42 7 -52 -3 -176 27 -379 94 -194 64 -257 90
-264 109 -3 8 -20 23 -38 33 -63 37 -271 308 -244 317 7 2 42 14 78 25 80 26
216 93 256 125 29 24 29 24 4 18 -14 -4 -27 -9 -30 -12 -26 -31 -60 -30 -305
11 -71 12 -138 22 -147 22 -10 0 -18 3 -18 6 0 3 -10 6 -22 7 -51 2 -78 8 -78
16 0 14 -50 4 -220 -42 -302 -82 -456 -139 -539 -199 -24 -18 -55 -32 -68 -32
-22 0 -21 3 18 33 39 29 118 151 107 163 -3 2 -37 13 -76 24 -39 11 -95 31
-124 44 -29 13 -83 33 -120 44 l-67 20 -16 -24 c-8 -13 -22 -24 -31 -24 -8 0
-22 -7 -31 -15 -18 -18 -31 -12 -16 7 9 12 23 59 38 131 l6 29 -51 -29 c-56
-31 -104 -92 -121 -156 -8 -30 -7 -42 2 -51 8 -8 13 -8 16 1 11 31 46 63 69
63 24 0 32 -14 14 -25 -16 -10 -60 -102 -60 -124 0 -34 -21 -118 -33 -135 -11
-15 -16 -15 -39 -3 -17 8 -24 17 -18 23 5 5 -14 9 -48 9 -31 0 -68 4 -80 8
-21 8 -23 6 -18 -11 5 -15 1 -21 -19 -24 -22 -5 -29 0 -45 33 -23 44 -26 75
-7 83 8 3 6 10 -8 22 -14 11 -16 18 -7 21 6 3 12 12 12 22 0 9 5 22 10 27 16
16 -6 102 -37 142 -14 19 -57 57 -94 84 -76 56 -82 71 -49 126 24 39 25 46 4
38 -17 -7 -131 21 -139 34 -2 4 14 22 35 39 40 32 45 52 12 50 -9 0 -79 -11
-156 -25z m150 -105 c52 -20 55 -23 52 -52 -2 -22 -12 -38 -35 -53 -39 -26
-86 -28 -262 -12 -92 8 -119 13 -105 21 11 5 35 24 54 42 21 20 61 41 100 53
36 12 72 23 80 26 19 6 48 0 116 -25z m211 -351 c-3 -8 -6 -5 -6 6 -1 11 2 17
5 13 3 -3 4 -12 1 -19z m1269 -118 c18 -24 114 -217 114 -229 0 -35 -177 21
-273 87 -66 45 -72 47 -135 45 l-67 -1 50 18 c28 9 70 28 95 40 27 14 69 25
105 27 36 2 64 9 70 18 11 17 26 15 41 -5z m-1901 -44 c44 -12 89 -27 100 -34
17 -10 12 -11 -36 -12 -72 0 -130 -21 -193 -69 -29 -22 -84 -49 -128 -64 -43
-14 -78 -25 -78 -24 2 24 62 185 76 201 17 20 25 22 69 17 39 -5 50 -10 49
-24 -3 -26 6 -20 18 14 8 22 15 28 27 23 9 -4 52 -16 96 -28z m-22 -152 c3 -3
-4 -29 -15 -58 -18 -42 -21 -69 -20 -155 1 -58 8 -130 16 -160 22 -87 127
-261 157 -261 5 0 27 38 49 84 32 67 61 108 144 198 103 112 105 113 188 142
46 16 104 40 130 52 39 20 56 23 113 18 44 -4 71 -2 81 6 11 10 24 8 62 -8 26
-11 85 -32 132 -47 47 -15 89 -31 95 -36 20 -19 27 -8 21 31 -3 22 -4 40 0 40
3 0 52 -27 108 -61 95 -56 106 -66 161 -146 100 -143 94 -140 95 -55 0 39 2
72 5 72 15 0 56 -60 71 -104 16 -48 15 -133 -2 -182 -5 -14 1 -12 24 10 45 42
101 163 114 244 14 88 5 265 -16 321 -9 24 -14 46 -12 48 11 11 79 -35 101
-69 63 -95 79 -187 50 -285 -16 -53 -99 -179 -163 -247 -29 -30 -33 -37 -16
-32 18 6 22 1 28 -31 20 -117 35 -248 37 -322 2 -78 0 -86 -20 -95 -15 -6 -26
-27 -37 -65 -8 -31 -21 -76 -29 -101 -21 -70 -24 -93 -15 -115 6 -15 -4 -34
-40 -80 -26 -33 -71 -96 -100 -140 -95 -144 -148 -186 -302 -235 -93 -30 -254
-92 -264 -102 -2 -3 51 -8 118 -11 68 -3 136 -11 152 -17 38 -14 91 4 219 74
57 32 97 49 97 42 0 -7 29 -32 64 -55 88 -57 164 -127 151 -140 -5 -5 -91 -59
-190 -119 -265 -159 -358 -185 -721 -199 -121 -4 -174 -3 -174 5 0 5 35 39 78
75 98 82 172 154 172 167 0 20 -20 9 -77 -43 -32 -30 -99 -86 -150 -125 l-92
-71 -82 14 c-65 12 -107 28 -208 81 -170 89 -291 158 -291 165 0 4 39 14 87
23 99 20 217 55 210 62 -5 5 -325 -32 -362 -42 -22 -5 -98 43 -123 78 -49 69
-268 321 -301 347 -46 37 -50 46 -20 54 29 8 107 -14 251 -71 174 -68 174 -68
187 -32 11 32 28 38 51 18 8 -7 3 1 -11 17 -14 17 -36 47 -50 68 -13 20 -32
40 -42 43 -9 3 -32 24 -50 46 -38 48 -266 245 -340 294 -28 20 -65 54 -81 77
-27 40 -28 43 -16 95 6 30 27 84 46 120 19 37 40 86 46 110 6 23 14 42 19 40
4 -2 31 -30 60 -63 28 -33 80 -90 116 -127 l64 -67 24 27 c13 15 25 25 28 22
2 -3 30 -43 62 -90 81 -119 109 -181 102 -233 l-5 -42 11 38 c6 20 14 37 18
37 4 0 21 -22 39 -49 77 -121 96 -79 44 99 -39 136 -37 190 17 468 6 28 15 52
20 52 5 0 27 -11 49 -25 22 -14 40 -22 40 -18 0 5 -28 26 -62 48 -103 66 -237
240 -253 327 -4 21 -11 35 -16 32 -5 -3 -9 2 -9 10 0 9 3 16 8 16 4 0 8 13 8
30 1 16 -2 27 -7 24 -5 -3 -9 0 -9 5 0 6 4 11 8 11 4 0 8 9 8 21 0 19 -1 19
-13 3 -25 -34 -13 -1 22 63 37 68 58 93 90 111 23 13 29 14 38 6z m857 -72
l35 -10 -30 -1 c-32 -1 -75 23 -75 41 0 6 8 4 18 -5 9 -8 33 -20 52 -25z
m-1235 -51 c88 -166 81 -159 115 -121 27 30 48 30 30 0 -4 -7 -6 -36 -3 -64
l5 -51 -156 -78 c-86 -43 -217 -100 -291 -127 -73 -27 -156 -59 -184 -70 -27
-12 -55 -20 -60 -19 -6 2 5 30 24 63 20 32 34 60 32 62 -2 2 -50 -10 -108 -26
-98 -29 -336 -90 -347 -90 -19 0 201 199 353 320 112 89 157 106 425 170 52
13 104 29 115 36 26 19 38 18 50 -5z m2613 -17 c155 -29 273 -65 337 -103 28
-16 91 -65 141 -108 50 -43 144 -121 208 -173 65 -52 113 -96 107 -98 -5 -2
-54 8 -108 23 -54 14 -159 38 -234 54 l-136 28 44 -64 c25 -34 40 -63 35 -63
-25 0 -367 126 -470 174 -64 30 -148 67 -187 84 -63 26 -70 32 -68 56 1 14 27
71 58 126 l57 99 46 -5 c26 -4 102 -17 170 -30z m-2400 -116 c-1 -29 2 -64 7
-78 5 -19 4 -22 -5 -14 -15 15 -24 85 -16 118 10 41 15 31 14 -26z m2059 5
c-3 -10 -5 -2 -5 17 0 19 2 27 5 18 2 -10 2 -26 0 -35z m-1947 -263 c12 -16
19 -30 16 -30 -2 0 -14 14 -26 30 -12 17 -19 30 -16 30 2 0 14 -13 26 -30z
m-282 -75 l-4 -34 55 29 c30 17 55 29 56 27 7 -8 65 -270 65 -291 0 -17 -5
-26 -15 -26 -9 0 -30 -7 -47 -16 l-31 -16 -105 111 c-57 62 -120 120 -139 130
l-35 17 23 28 c14 16 52 37 89 51 90 32 93 32 88 -10z m372 -30 c19 -19 32
-35 29 -35 -3 0 -20 16 -39 35 -19 19 -32 35 -29 35 3 0 20 -16 39 -35z m2173
-35 c44 -30 45 -39 11 -71 -22 -20 -162 -188 -186 -223 -4 -6 -9 -8 -12 -5 -3
2 8 30 23 61 16 30 46 105 67 166 23 66 43 108 49 104 6 -4 27 -18 48 -32z
m-2817 -121 c-45 -211 -59 -333 -51 -464 6 -105 12 -148 42 -289 10 -48 -12
-27 -73 69 -127 201 -158 252 -179 300 -23 51 -79 244 -73 251 2 2 82 66 178
144 136 108 176 136 178 122 2 -10 -8 -70 -22 -133z m3111 -29 c62 -44 117
-89 123 -101 9 -15 7 -34 -8 -82 -11 -34 -28 -93 -37 -132 -28 -110 -64 -173
-193 -334 -19 -24 -19 -24 -6 45 8 38 17 130 20 204 6 128 4 144 -30 313 -44
218 -44 215 -8 188 15 -12 77 -57 139 -101z m-154 -251 c-19 -32 -84 -89 -128
-112 -17 -8 -61 -42 -100 -74 -137 -115 -231 -182 -196 -139 6 7 23 47 36 87
94 275 141 364 277 512 l53 59 37 -152 c36 -146 37 -154 21 -181z m-173 -226
c0 -10 13 -56 29 -103 32 -95 32 -98 -38 -164 -17 -17 -31 -37 -31 -46 0 -9
-13 -36 -28 -61 -54 -85 -239 -306 -248 -297 -2 3 1 20 6 38 6 19 12 118 15
220 6 216 7 224 27 228 9 2 33 19 54 38 61 54 198 163 207 163 4 1 7 -7 7 -16z"/>
<path d="M3150 2024 c18 -32 46 -75 62 -94 32 -39 26 -46 -29 -31 -21 6 -49
11 -62 11 -23 0 -23 -1 -17 -61 l7 -62 -48 40 c-90 74 -78 55 32 -54 121 -119
187 -170 235 -179 16 -4 30 -4 30 -1 0 6 -70 202 -86 241 -6 16 -4 18 17 14
13 -3 32 -9 43 -13 16 -7 17 -5 8 11 -13 25 -200 228 -215 233 -6 2 4 -23 23
-55z"/>
<path d="M3442 1713 c2 -5 20 -33 41 -64 35 -52 45 -59 118 -88 90 -35 107
-38 90 -17 -10 11 1 17 60 31 64 16 70 19 54 31 -20 15 -161 62 -278 93 -87
23 -90 24 -85 14z"/>
<path d="M4248 4291 c23 -21 42 -41 42 -45 0 -3 -17 -6 -39 -6 -67 0 -101 -11
-101 -32 0 -40 22 -107 34 -102 7 3 31 -14 54 -38 23 -23 42 -38 42 -32 0 5
-23 32 -51 59 -31 31 -48 57 -47 69 5 34 51 58 122 63 62 5 74 3 221 -53 85
-32 155 -62 155 -66 0 -11 -77 -18 -252 -20 -93 -2 -168 -6 -168 -10 0 -14 98
-64 190 -96 142 -50 140 -50 106 -14 l-28 31 62 31 c34 17 113 48 176 69 l113
39 -102 60 c-210 123 -216 126 -240 113 -17 -9 -43 -8 -117 4 -52 8 -122 15
-155 15 l-60 -1 43 -38z"/>
<path d="M3540 4320 c0 -3 7 -23 16 -45 l15 -40 -6 35 c-3 19 -10 39 -15 44
-6 6 -10 8 -10 6z"/>
<path d="M3664 4265 c-10 -8 -14 -14 -9 -14 6 0 19 6 29 14 11 8 15 15 10 15
-6 0 -19 -7 -30 -15z"/>
<path d="M3820 3910 c0 -13 7 -20 19 -20 25 0 38 20 20 31 -23 15 -39 10 -39
-11z"/>
</g>
</svg>
